<svg xmlns="http://www.w3.org/2000/svg" xmlns:xlink="http://www.w3.org/1999/xlink" width="628" zoomAndPan="magnify" viewBox="0 0 470.87997 74.999997" height="100" preserveAspectRatio="xMidYMid meet" version="1.0"><defs><g/><clipPath id="b378f875e4"><path d="M 249 25 L 277.476562 25 L 277.476562 52 L 249 52 Z M 249 25 " clip-rule="nonzero"/></clipPath><clipPath id="2a01359de5"><path d="M 258 55 L 266 55 L 266 62.96875 L 258 62.96875 Z M 258 55 " clip-rule="nonzero"/></clipPath><clipPath id="011d9b3bbb"><path d="M 194.25 55 L 202 55 L 202 62.96875 L 194.25 62.96875 Z M 194.25 55 " clip-rule="nonzero"/></clipPath><clipPath id="5551faa75c"><path d="M 272 56 L 277.476562 56 L 277.476562 62 L 272 62 Z M 272 56 " clip-rule="nonzero"/></clipPath><clipPath id="54a0694d3c"><path d="M 222 56 L 227 56 L 227 62.96875 L 222 62.96875 Z M 222 56 " clip-rule="nonzero"/></clipPath><clipPath id="becc20d64c"><path d="M 202 56 L 208 56 L 208 62.96875 L 202 62.96875 Z M 202 56 " clip-rule="nonzero"/></clipPath><clipPath id="1d9ea80da1"><path d="M 207 56 L 213 56 L 213 62.96875 L 207 62.96875 Z M 207 56 " clip-rule="nonzero"/></clipPath><clipPath id="7f0919ddd7"><path d="M 213 56 L 219 56 L 219 62.96875 L 213 62.96875 Z M 213 56 " clip-rule="nonzero"/></clipPath><clipPath id="6d945ecf46"><path d="M 219 56 L 221 56 L 221 62.96875 L 219 62.96875 Z M 219 56 " clip-rule="nonzero"/></clipPath><clipPath id="3efb2ae160"><path d="M 226 56 L 230 56 L 230 62.96875 L 226 62.96875 Z M 226 56 " clip-rule="nonzero"/></clipPath><clipPath id="db96c70004"><path d="M 131 37 L 143.964844 37 L 143.964844 57 L 131 57 Z M 131 37 " clip-rule="nonzero"/></clipPath><clipPath id="0ea55e3d4f"><path d="M 0 24.683594 L 37 24.683594 L 37 62.925781 L 0 62.925781 Z M 0 24.683594 " clip-rule="nonzero"/></clipPath><clipPath id="91168e3e15"><path d="M 18.375 24.683594 C 20.292969 24.683594 21.699219 27.765625 23.429688 28.324219 C 25.226562 28.902344 28.179688 27.253906 29.671875 28.335938 C 31.183594 29.429688 30.515625 32.742188 31.613281 34.246094 C 32.699219 35.730469 36.078125 36.117188 36.660156 37.902344 C 37.222656 39.628906 34.734375 41.90625 34.734375 43.816406 C 34.734375 45.726562 37.222656 48.007812 36.660156 49.730469 C 36.078125 51.519531 32.699219 51.902344 31.613281 53.390625 C 30.511719 54.890625 31.183594 58.207031 29.671875 59.296875 C 28.179688 60.378906 25.226562 58.730469 23.429688 59.3125 C 21.699219 59.871094 20.292969 62.953125 18.375 62.953125 C 16.453125 62.953125 15.046875 59.871094 13.316406 59.3125 C 11.519531 58.730469 8.566406 60.378906 7.074219 59.296875 C 5.566406 58.203125 6.234375 54.890625 5.136719 53.390625 C 4.046875 51.902344 0.671875 51.519531 0.0898438 49.730469 C -0.472656 48.007812 2.011719 45.726562 2.011719 43.816406 C 2.011719 41.90625 -0.472656 39.628906 0.0898438 37.902344 C 0.671875 36.117188 4.046875 35.730469 5.136719 34.246094 C 6.234375 32.742188 5.566406 29.429688 7.074219 28.335938 C 8.570312 27.253906 11.523438 28.902344 13.316406 28.324219 C 15.046875 27.765625 16.453125 24.683594 18.375 24.683594 Z M 18.375 24.683594 " clip-rule="nonzero"/></clipPath><linearGradient x1="-3.800304" gradientTransform="matrix(0.260122, 0, 0, 0.260122, 0.00530376, 24.68376)" y1="4.033138" x2="145.725114" gradientUnits="userSpaceOnUse" y2="144.1795" id="6e39c79d5a"><stop stop-opacity="1" stop-color="rgb(0%, 98.399353%, 100%)" offset="0"/><stop stop-opacity="1" stop-color="rgb(0.0274658%, 98.344421%, 99.958801%)" offset="0.125"/><stop stop-opacity="1" stop-color="rgb(0.119019%, 98.165894%, 99.82605%)" offset="0.140625"/><stop stop-opacity="1" stop-color="rgb(0.248718%, 97.918701%, 99.641418%)" offset="0.15625"/><stop stop-opacity="1" stop-color="rgb(0.378418%, 97.669983%, 99.456787%)" offset="0.171875"/><stop stop-opacity="1" stop-color="rgb(0.508118%, 97.421265%, 99.272156%)" offset="0.1875"/><stop stop-opacity="1" stop-color="rgb(0.636292%, 97.174072%, 99.087524%)" offset="0.203125"/><stop stop-opacity="1" stop-color="rgb(0.765991%, 96.925354%, 98.902893%)" offset="0.21875"/><stop stop-opacity="1" stop-color="rgb(0.895691%, 96.676636%, 98.718262%)" offset="0.234375"/><stop stop-opacity="1" stop-color="rgb(1.023865%, 96.429443%, 98.53363%)" offset="0.25"/><stop stop-opacity="1" stop-color="rgb(1.153564%, 96.180725%, 98.348999%)" offset="0.265625"/><stop stop-opacity="1" stop-color="rgb(1.283264%, 95.932007%, 98.164368%)" offset="0.28125"/><stop stop-opacity="1" stop-color="rgb(1.411438%, 95.684814%, 97.979736%)" offset="0.296875"/><stop stop-opacity="1" stop-color="rgb(1.541138%, 95.436096%, 97.795105%)" offset="0.3125"/><stop stop-opacity="1" stop-color="rgb(1.670837%, 95.188904%, 97.610474%)" offset="0.328125"/><stop stop-opacity="1" stop-color="rgb(1.799011%, 94.940186%, 97.425842%)" offset="0.34375"/><stop stop-opacity="1" stop-color="rgb(1.928711%, 94.691467%, 97.241211%)" offset="0.359375"/><stop stop-opacity="1" stop-color="rgb(2.058411%, 94.444275%, 97.05658%)" offset="0.375"/><stop stop-opacity="1" stop-color="rgb(2.186584%, 94.195557%, 96.871948%)" offset="0.390625"/><stop stop-opacity="1" stop-color="rgb(2.316284%, 93.946838%, 96.687317%)" offset="0.40625"/><stop stop-opacity="1" stop-color="rgb(2.445984%, 93.699646%, 96.502686%)" offset="0.421875"/><stop stop-opacity="1" stop-color="rgb(2.574158%, 93.450928%, 96.318054%)" offset="0.4375"/><stop stop-opacity="1" stop-color="rgb(2.703857%, 93.202209%, 96.133423%)" offset="0.453125"/><stop stop-opacity="1" stop-color="rgb(2.833557%, 92.955017%, 95.948792%)" offset="0.46875"/><stop stop-opacity="1" stop-color="rgb(2.961731%, 92.706299%, 95.76416%)" offset="0.484375"/><stop stop-opacity="1" stop-color="rgb(3.091431%, 92.457581%, 95.579529%)" offset="0.490555"/><stop stop-opacity="1" stop-color="rgb(3.157043%, 92.333984%, 95.487976%)" offset="0.5"/><stop stop-opacity="1" stop-color="rgb(3.22113%, 92.210388%, 95.394897%)" offset="0.509445"/><stop stop-opacity="1" stop-color="rgb(3.286743%, 92.086792%, 95.303345%)" offset="0.515625"/><stop stop-opacity="1" stop-color="rgb(3.35083%, 91.96167%, 95.210266%)" offset="0.53125"/><stop stop-opacity="1" stop-color="rgb(3.479004%, 91.712952%, 95.025635%)" offset="0.546875"/><stop stop-opacity="1" stop-color="rgb(3.608704%, 91.465759%, 94.841003%)" offset="0.5625"/><stop stop-opacity="1" stop-color="rgb(3.738403%, 91.217041%, 94.656372%)" offset="0.578125"/><stop stop-opacity="1" stop-color="rgb(3.866577%, 90.969849%, 94.471741%)" offset="0.59375"/><stop stop-opacity="1" stop-color="rgb(3.996277%, 90.72113%, 94.287109%)" offset="0.609375"/><stop stop-opacity="1" stop-color="rgb(4.125977%, 90.472412%, 94.102478%)" offset="0.625"/><stop stop-opacity="1" stop-color="rgb(4.25415%, 90.22522%, 93.917847%)" offset="0.640625"/><stop stop-opacity="1" stop-color="rgb(4.38385%, 89.976501%, 93.733215%)" offset="0.65625"/><stop stop-opacity="1" stop-color="rgb(4.51355%, 89.727783%, 93.55011%)" offset="0.671875"/><stop stop-opacity="1" stop-color="rgb(4.641724%, 89.480591%, 93.365479%)" offset="0.6875"/><stop stop-opacity="1" stop-color="rgb(4.771423%, 89.231873%, 93.180847%)" offset="0.703125"/><stop stop-opacity="1" stop-color="rgb(4.901123%, 88.983154%, 92.996216%)" offset="0.71875"/><stop stop-opacity="1" stop-color="rgb(5.029297%, 88.735962%, 92.811584%)" offset="0.734375"/><stop stop-opacity="1" stop-color="rgb(5.158997%, 88.487244%, 92.626953%)" offset="0.75"/><stop stop-opacity="1" stop-color="rgb(5.288696%, 88.238525%, 92.442322%)" offset="0.765625"/><stop stop-opacity="1" stop-color="rgb(5.41687%, 87.991333%, 92.25769%)" offset="0.78125"/><stop stop-opacity="1" stop-color="rgb(5.54657%, 87.742615%, 92.073059%)" offset="0.796875"/><stop stop-opacity="1" stop-color="rgb(5.67627%, 87.493896%, 91.888428%)" offset="0.8125"/><stop stop-opacity="1" stop-color="rgb(5.805969%, 87.246704%, 91.703796%)" offset="0.828125"/><stop stop-opacity="1" stop-color="rgb(5.934143%, 86.997986%, 91.519165%)" offset="0.84375"/><stop stop-opacity="1" stop-color="rgb(6.063843%, 86.750793%, 91.334534%)" offset="0.859375"/><stop stop-opacity="1" stop-color="rgb(6.193542%, 86.502075%, 91.149902%)" offset="0.875"/><stop stop-opacity="1" stop-color="rgb(4.878235%, 82.588196%, 90.028381%)" offset="0.878906"/><stop stop-opacity="1" stop-color="rgb(3.49884%, 78.799438%, 88.999939%)" offset="0.882812"/><stop stop-opacity="1" stop-color="rgb(3.49884%, 78.799438%, 88.999939%)" offset="0.890625"/><stop stop-opacity="1" stop-color="rgb(3.49884%, 78.799438%, 88.999939%)" offset="0.90625"/><stop stop-opacity="1" stop-color="rgb(3.49884%, 78.799438%, 88.999939%)" offset="0.9375"/><stop stop-opacity="1" stop-color="rgb(3.49884%, 78.799438%, 88.999939%)" offset="1"/></linearGradient><clipPath id="53f010cae4"><path d="M 328.207031 29.394531 L 355 29.394531 L 355 58.636719 L 328.207031 58.636719 Z M 328.207031 29.394531 " clip-rule="nonzero"/></clipPath><clipPath id="384314eb44"><path d="M 355 29.394531 L 383 29.394531 L 383 58.636719 L 355 58.636719 Z M 355 29.394531 " clip-rule="nonzero"/></clipPath><clipPath id="c4a9f04fd6"><path d="M 385 29.394531 L 410 29.394531 L 410 58.636719 L 385 58.636719 Z M 385 29.394531 " clip-rule="nonzero"/></clipPath><clipPath id="419379725e"><path d="M 411 29.394531 L 439 29.394531 L 439 58.636719 L 411 58.636719 Z M 411 29.394531 " clip-rule="nonzero"/></clipPath><clipPath id="67b6787ad5"><path d="M 440 29.394531 L 446 29.394531 L 446 58.636719 L 440 58.636719 Z M 440 29.394531 " clip-rule="nonzero"/></clipPath><clipPath id="1946d75a72"><path d="M 448 29.394531 L 470.527344 29.394531 L 470.527344 58.636719 L 448 58.636719 Z M 448 29.394531 " clip-rule="nonzero"/></clipPath></defs><path fill="#ffffff" d="M 196.828125 24.800781 C 196.617188 24.878906 196.386719 25.09375 196.261719 25.332031 C 196.191406 25.46875 196.167969 25.578125 196.167969 25.800781 C 196.167969 26.0625 196.191406 26.148438 196.371094 26.554688 C 197.007812 28 197.5625 28.859375 198.414062 29.722656 C 199.195312 30.511719 199.9375 31.042969 200.929688 31.527344 C 201.8125 31.960938 202.46875 32.171875 203.480469 32.351562 C 203.960938 32.441406 204.148438 32.445312 207.871094 32.46875 C 210.421875 32.492188 211.851562 32.515625 212.03125 32.546875 C 213.089844 32.730469 213.875 33.132812 214.542969 33.835938 C 215.386719 34.730469 215.804688 35.882812 215.863281 37.488281 C 215.910156 38.730469 215.71875 39.773438 215.285156 40.644531 C 214.628906 41.957031 213.480469 42.722656 211.882812 42.917969 C 211.632812 42.945312 209.925781 42.964844 206.679688 42.964844 C 202.097656 42.964844 201.84375 42.96875 201.683594 43.042969 C 201.433594 43.15625 201.261719 43.320312 201.144531 43.558594 L 201.035156 43.773438 L 201.035156 46.386719 C 201.035156 49.261719 201.03125 49.214844 201.289062 49.699219 C 201.558594 50.199219 202.121094 50.625 202.683594 50.738281 C 202.839844 50.773438 204.234375 50.78125 207.582031 50.769531 C 212.542969 50.753906 212.554688 50.753906 213.660156 50.546875 C 217.453125 49.84375 220.410156 47.691406 222.09375 44.40625 C 223.105469 42.429688 223.613281 40.1875 223.613281 37.660156 C 223.613281 34.355469 222.761719 31.5625 221.074219 29.296875 C 220.679688 28.769531 219.640625 27.699219 219.152344 27.3125 C 217.6875 26.164062 216.003906 25.402344 214.039062 25.011719 C 212.730469 24.746094 213.257812 24.761719 204.757812 24.753906 C 197.984375 24.742188 196.980469 24.746094 196.828125 24.800781 Z M 196.828125 24.800781 " fill-opacity="1" fill-rule="nonzero"/><g clip-path="url(#b378f875e4)"><path fill="#ffffff" d="M 250.496094 25.484375 C 250.003906 25.632812 249.660156 26.140625 249.714844 26.625 C 249.742188 26.863281 250.195312 27.921875 250.507812 28.476562 C 251.871094 30.917969 254.148438 32.546875 256.933594 33.058594 C 257.394531 33.148438 257.585938 33.152344 261.28125 33.179688 C 263.492188 33.203125 265.285156 33.234375 265.464844 33.253906 C 267.535156 33.535156 268.871094 34.867188 269.316406 37.089844 C 269.394531 37.484375 269.414062 37.683594 269.410156 38.492188 C 269.410156 39.207031 269.390625 39.523438 269.339844 39.816406 C 269.164062 40.738281 268.875 41.445312 268.429688 42.035156 C 268.132812 42.429688 267.847656 42.695312 267.453125 42.957031 C 267 43.25 266.585938 43.410156 265.804688 43.597656 C 265.667969 43.632812 264.101562 43.652344 260.488281 43.671875 L 255.367188 43.695312 L 255.195312 43.789062 C 254.984375 43.898438 254.789062 44.101562 254.6875 44.296875 C 254.617188 44.433594 254.613281 44.644531 254.601562 47.0625 C 254.59375 48.78125 254.605469 49.746094 254.632812 49.878906 C 254.785156 50.578125 255.359375 51.199219 256.054688 51.414062 C 256.328125 51.496094 256.40625 51.496094 261.160156 51.480469 C 266.464844 51.464844 266.191406 51.476562 267.574219 51.195312 C 272.53125 50.183594 276.046875 46.445312 276.933594 41.238281 C 277.113281 40.195312 277.148438 39.714844 277.148438 38.324219 C 277.144531 36.953125 277.105469 36.453125 276.914062 35.375 C 276.101562 30.863281 273.238281 27.460938 269.132812 26.136719 C 268.085938 25.796875 266.933594 25.578125 265.734375 25.488281 C 265.050781 25.4375 250.65625 25.433594 250.496094 25.484375 Z M 250.496094 25.484375 " fill-opacity="1" fill-rule="nonzero"/></g><path fill="#ffffff" d="M 236.789062 25.625 C 236.675781 25.816406 235.785156 27.261719 235.253906 28.121094 C 235.003906 28.523438 234.535156 29.285156 234.210938 29.816406 C 233.882812 30.339844 233.339844 31.226562 232.996094 31.78125 C 232.035156 33.339844 230.59375 35.675781 229.800781 36.964844 C 229.53125 37.398438 228.832031 38.527344 228.253906 39.472656 C 227.039062 41.4375 226.195312 42.808594 225.492188 43.945312 C 225.226562 44.382812 224.707031 45.222656 224.34375 45.808594 C 223.980469 46.390625 223.511719 47.152344 223.296875 47.5 C 223.085938 47.84375 222.542969 48.726562 222.089844 49.460938 C 221.636719 50.191406 221.273438 50.796875 221.277344 50.804688 C 221.289062 50.808594 221.734375 50.65625 222.273438 50.46875 L 223.257812 50.125 L 223.589844 49.601562 C 223.773438 49.316406 224.15625 48.726562 224.429688 48.289062 C 225.058594 47.316406 225.765625 46.214844 226.246094 45.472656 C 226.445312 45.164062 227.097656 44.148438 227.695312 43.214844 C 228.292969 42.28125 229.53125 40.355469 230.449219 38.929688 C 231.363281 37.503906 232.273438 36.082031 232.476562 35.773438 C 232.675781 35.464844 233.183594 34.671875 233.605469 34.015625 C 234.355469 32.84375 234.707031 32.292969 235.710938 30.734375 C 237.496094 27.960938 237.957031 27.230469 237.941406 27.183594 C 237.902344 27.089844 236.945312 25.535156 236.90625 25.507812 C 236.890625 25.496094 236.835938 25.550781 236.789062 25.625 Z M 236.789062 25.625 " fill-opacity="1" fill-rule="nonzero"/><path fill="#ffffff" d="M 238.457031 29.480469 L 238.027344 30.171875 L 238.488281 30.914062 C 238.738281 31.320312 239.210938 32.085938 239.539062 32.617188 C 239.867188 33.144531 240.332031 33.886719 240.566406 34.269531 C 240.800781 34.648438 241.289062 35.4375 241.652344 36.023438 C 242.015625 36.609375 242.476562 37.351562 242.675781 37.675781 C 243.015625 38.226562 244.085938 39.953125 245.554688 42.316406 C 245.910156 42.886719 246.363281 43.625 246.566406 43.945312 C 246.765625 44.269531 247.230469 45.011719 247.589844 45.597656 C 248.328125 46.789062 249.097656 48.039062 249.816406 49.191406 C 250.082031 49.621094 250.320312 49.992188 250.34375 50.015625 C 250.371094 50.046875 250.84375 50.230469 251.394531 50.421875 C 251.945312 50.613281 252.429688 50.789062 252.472656 50.808594 C 252.53125 50.828125 252.507812 50.765625 252.382812 50.570312 C 252.292969 50.421875 251.925781 49.820312 251.5625 49.234375 C 250.773438 47.964844 250.074219 46.828125 249.40625 45.742188 C 249.140625 45.304688 248.648438 44.507812 248.3125 43.96875 C 246.289062 40.695312 245.335938 39.148438 244.996094 38.59375 C 244.785156 38.246094 244.316406 37.488281 243.953125 36.902344 C 243.589844 36.316406 243.121094 35.550781 242.90625 35.207031 C 242.691406 34.859375 242 33.734375 241.359375 32.699219 C 240.71875 31.664062 239.917969 30.363281 239.574219 29.800781 C 239.230469 29.246094 238.933594 28.789062 238.921875 28.789062 C 238.90625 28.792969 238.695312 29.105469 238.457031 29.480469 Z M 238.457031 29.480469 " fill-opacity="1" fill-rule="nonzero"/><path fill="#ffffff" d="M 236.675781 32.265625 C 235.976562 33.355469 235.449219 34.175781 234.734375 35.292969 C 234.335938 35.910156 233.847656 36.675781 233.644531 36.984375 C 233.445312 37.292969 232.449219 38.84375 231.429688 40.433594 C 230.410156 42.019531 229.414062 43.574219 229.214844 43.882812 C 229.015625 44.191406 228.355469 45.21875 227.75 46.160156 C 227.144531 47.101562 226.460938 48.175781 226.222656 48.546875 C 225.988281 48.914062 225.792969 49.21875 225.804688 49.222656 C 225.8125 49.234375 227.863281 48.527344 229.546875 47.933594 C 230.132812 47.726562 230.699219 47.542969 230.804688 47.519531 C 230.90625 47.5 231.773438 47.210938 232.726562 46.882812 C 233.679688 46.546875 234.71875 46.1875 235.039062 46.078125 C 235.351562 45.96875 235.609375 45.871094 235.609375 45.851562 C 235.609375 45.839844 235.355469 45.679688 235.046875 45.5 C 234.738281 45.320312 234.480469 45.167969 234.480469 45.160156 C 234.480469 45.144531 234.675781 44.824219 234.914062 44.441406 C 235.152344 44.054688 235.691406 43.167969 236.109375 42.46875 C 236.53125 41.777344 236.886719 41.207031 236.898438 41.207031 C 236.914062 41.210938 237.167969 41.609375 237.457031 42.097656 C 237.75 42.585938 238.273438 43.453125 238.625 44.03125 C 238.976562 44.601562 239.261719 45.101562 239.265625 45.128906 C 239.269531 45.164062 239.019531 45.339844 238.703125 45.527344 L 238.144531 45.859375 L 238.308594 45.917969 C 240.046875 46.535156 242.421875 47.34375 243.535156 47.699219 C 244.042969 47.863281 245.957031 48.523438 247.378906 49.027344 C 247.632812 49.113281 247.84375 49.179688 247.851562 49.175781 C 247.863281 49.160156 247.554688 48.65625 245.644531 45.578125 C 245.019531 44.566406 244.3125 43.429688 244.078125 43.046875 C 243.84375 42.667969 243.355469 41.875 242.988281 41.292969 C 242.625 40.707031 242.117188 39.886719 241.863281 39.472656 C 241.605469 39.058594 241.097656 38.238281 240.734375 37.652344 C 240.367188 37.070312 239.878906 36.277344 239.644531 35.898438 C 239.410156 35.519531 238.953125 34.773438 238.621094 34.246094 C 238.289062 33.714844 237.828125 32.964844 237.585938 32.574219 C 237.347656 32.179688 237.125 31.832031 237.089844 31.785156 C 237.046875 31.714844 237.003906 31.757812 236.675781 32.265625 Z M 237.351562 35.214844 C 237.585938 35.605469 238.332031 36.839844 239.019531 37.96875 C 239.703125 39.09375 240.472656 40.363281 240.734375 40.789062 C 241.199219 41.558594 241.5625 42.160156 242.566406 43.816406 C 242.859375 44.296875 243.082031 44.703125 243.066406 44.71875 C 243.050781 44.738281 242.738281 44.921875 242.375 45.125 L 241.722656 45.5 L 241.292969 44.808594 C 240.699219 43.847656 239.472656 41.859375 238.183594 39.765625 C 236.808594 37.53125 236.902344 37.683594 236.84375 37.765625 C 236.796875 37.828125 235.886719 39.308594 234.125 42.167969 C 233.894531 42.550781 233.375 43.386719 232.976562 44.03125 C 232.578125 44.671875 232.214844 45.261719 232.175781 45.335938 C 232.128906 45.410156 232.070312 45.472656 232.042969 45.472656 C 231.96875 45.46875 230.75 44.746094 230.730469 44.695312 C 230.714844 44.648438 230.824219 44.46875 232.707031 41.375 C 233.300781 40.398438 234.210938 38.890625 234.734375 38.03125 C 237.070312 34.175781 236.855469 34.519531 236.898438 34.519531 C 236.914062 34.519531 237.117188 34.832031 237.351562 35.214844 Z M 237.351562 35.214844 " fill-opacity="1" fill-rule="nonzero"/><path fill="#ffffff" d="M 202.210938 34.042969 C 201.386719 34.261719 200.792969 34.875 200.597656 35.691406 C 200.546875 35.910156 200.535156 36.320312 200.535156 37.929688 C 200.535156 39.15625 200.550781 39.992188 200.578125 40.144531 C 200.71875 40.917969 201.332031 41.605469 202.101562 41.847656 C 202.378906 41.933594 202.464844 41.941406 203.753906 41.941406 L 205.113281 41.941406 L 205.410156 41.832031 C 206.101562 41.574219 206.558594 41.121094 206.8125 40.414062 C 206.910156 40.140625 206.910156 40.136719 206.910156 37.988281 C 206.910156 35.882812 206.910156 35.828125 206.816406 35.542969 C 206.578125 34.789062 205.964844 34.21875 205.207031 34.039062 C 204.835938 33.949219 202.539062 33.953125 202.210938 34.042969 Z M 202.210938 34.042969 " fill-opacity="1" fill-rule="nonzero"/><path fill="#ffffff" d="M 255.964844 34.726562 C 255.128906 34.875 254.515625 35.390625 254.207031 36.214844 C 254.117188 36.457031 254.113281 36.511719 254.097656 38.511719 C 254.089844 39.933594 254.097656 40.644531 254.136719 40.84375 C 254.277344 41.6875 254.960938 42.40625 255.8125 42.609375 C 256.1875 42.695312 258.386719 42.695312 258.765625 42.609375 C 259.519531 42.429688 260.136719 41.855469 260.375 41.101562 C 260.464844 40.820312 260.464844 40.765625 260.464844 38.679688 C 260.464844 36.597656 260.460938 36.539062 260.375 36.253906 C 260.15625 35.5625 259.628906 35.027344 258.945312 34.804688 C 258.6875 34.71875 258.570312 34.710938 257.414062 34.703125 C 256.722656 34.699219 256.070312 34.707031 255.964844 34.726562 Z M 255.964844 34.726562 " fill-opacity="1" fill-rule="nonzero"/><g clip-path="url(#2a01359de5)"><path fill="#ffffff" d="M 258.980469 55.457031 C 258.84375 55.570312 258.863281 55.742188 259.046875 56.101562 C 259.335938 56.648438 259.78125 57.035156 260.351562 57.253906 C 260.621094 57.359375 260.679688 57.363281 261.867188 57.386719 C 263.042969 57.414062 263.109375 57.417969 263.300781 57.507812 C 263.816406 57.761719 264.078125 58.390625 263.960938 59.085938 C 263.902344 59.417969 263.808594 59.621094 263.613281 59.796875 C 263.308594 60.085938 263.335938 60.082031 261.730469 60.105469 C 260.347656 60.125 260.269531 60.128906 260.210938 60.207031 C 260.125 60.328125 260.128906 61.691406 260.214844 61.859375 C 260.34375 62.117188 260.332031 62.113281 261.855469 62.113281 C 263.359375 62.113281 263.59375 62.085938 264.089844 61.878906 C 264.914062 61.53125 265.488281 60.898438 265.804688 59.980469 C 265.941406 59.582031 265.941406 59.578125 265.941406 58.765625 C 265.941406 58.101562 265.929688 57.902344 265.867188 57.679688 C 265.617188 56.796875 265.070312 56.113281 264.3125 55.738281 C 263.667969 55.417969 263.324219 55.378906 261.003906 55.378906 C 259.195312 55.378906 259.070312 55.386719 258.980469 55.457031 Z M 258.980469 55.457031 " fill-opacity="1" fill-rule="nonzero"/></g><g clip-path="url(#011d9b3bbb)"><path fill="#ffffff" d="M 194.433594 56.03125 C 194.335938 56.160156 194.34375 56.199219 194.492188 56.53125 C 194.691406 56.976562 195.105469 57.414062 195.539062 57.628906 C 195.957031 57.839844 196.101562 57.859375 197.355469 57.886719 C 198.472656 57.910156 198.558594 57.917969 198.714844 58.003906 C 198.941406 58.125 199.128906 58.328125 199.246094 58.578125 C 199.324219 58.753906 199.34375 58.859375 199.34375 59.226562 C 199.34375 59.59375 199.324219 59.699219 199.246094 59.875 C 199.121094 60.148438 198.96875 60.300781 198.714844 60.421875 C 198.511719 60.519531 198.488281 60.523438 197.164062 60.523438 C 195.867188 60.523438 195.816406 60.527344 195.707031 60.609375 L 195.601562 60.695312 L 195.601562 61.414062 C 195.601562 62.0625 195.609375 62.144531 195.683594 62.269531 C 195.84375 62.53125 195.921875 62.539062 197.394531 62.523438 C 198.898438 62.5 199.082031 62.472656 199.710938 62.144531 C 200.113281 61.941406 200.632812 61.449219 200.863281 61.054688 C 201.441406 60.070312 201.472656 58.585938 200.945312 57.511719 C 200.695312 57.011719 200.199219 56.515625 199.699219 56.269531 C 199.027344 55.949219 199.0625 55.949219 196.664062 55.933594 L 194.523438 55.921875 Z M 194.433594 56.03125 " fill-opacity="1" fill-rule="nonzero"/></g><path fill="#ffffff" d="M 267.183594 56.164062 C 267.132812 56.171875 267.074219 56.214844 267.054688 56.25 C 266.980469 56.394531 266.84375 59.410156 266.84375 60.964844 C 266.84375 61.507812 266.851562 61.609375 266.914062 61.65625 C 267.003906 61.734375 271.492188 61.746094 271.570312 61.664062 C 271.625 61.609375 271.625 61.144531 271.566406 60.355469 C 271.511719 59.644531 271.398438 59.5625 271.105469 60.023438 C 270.757812 60.566406 270.339844 60.75 269.476562 60.75 C 268.722656 60.75 268.339844 60.617188 268.105469 60.273438 C 268.015625 60.144531 268.007812 60.089844 268.019531 59.757812 C 268.035156 59.390625 268.035156 59.386719 268.1875 59.25 C 268.371094 59.078125 268.589844 59.015625 269.011719 59.011719 C 269.5 59 269.804688 59.054688 270.121094 59.199219 C 270.394531 59.324219 270.40625 59.324219 270.460938 59.25 C 270.503906 59.195312 270.519531 59.042969 270.519531 58.765625 C 270.519531 58.203125 270.539062 58.210938 269.765625 58.269531 C 268.429688 58.371094 267.972656 58.214844 268.019531 57.671875 C 268.039062 57.496094 268.066406 57.433594 268.171875 57.335938 C 268.378906 57.152344 268.710938 57.078125 269.289062 57.078125 C 270.148438 57.082031 270.664062 57.289062 270.964844 57.742188 C 271.039062 57.859375 271.152344 57.875 271.230469 57.785156 C 271.3125 57.6875 271.226562 56.320312 271.132812 56.226562 C 271.070312 56.164062 270.890625 56.15625 269.171875 56.148438 C 268.128906 56.144531 267.238281 56.148438 267.183594 56.164062 Z M 267.183594 56.164062 " fill-opacity="1" fill-rule="nonzero"/><g clip-path="url(#5551faa75c)"><path fill="#ffffff" d="M 272.660156 56.175781 C 272.613281 56.195312 272.554688 56.257812 272.53125 56.308594 C 272.476562 56.457031 272.40625 57.8125 272.355469 59.738281 C 272.304688 61.679688 272.300781 61.65625 272.574219 61.710938 C 272.796875 61.753906 273.433594 61.738281 273.550781 61.6875 C 273.609375 61.660156 273.667969 61.597656 273.683594 61.550781 C 273.691406 61.5 273.671875 61.164062 273.636719 60.800781 C 273.546875 59.871094 273.550781 59.121094 273.648438 58.933594 C 273.824219 58.578125 274.058594 58.78125 274.699219 59.859375 C 275.292969 60.84375 275.503906 61.148438 275.808594 61.433594 C 276.246094 61.84375 276.628906 61.875 276.964844 61.527344 C 277.214844 61.269531 277.230469 61.125 277.222656 59.730469 C 277.207031 57.964844 277.113281 56.359375 277.019531 56.226562 C 276.972656 56.167969 276.894531 56.15625 276.480469 56.15625 C 275.792969 56.15625 275.828125 56.082031 276.003906 57.230469 C 276.113281 57.953125 276.160156 58.667969 276.117188 58.9375 C 276.054688 59.328125 275.902344 59.34375 275.59375 59 C 275.277344 58.65625 274.632812 57.644531 274.144531 56.757812 C 273.925781 56.351562 273.851562 56.277344 273.628906 56.191406 C 273.449219 56.128906 272.808594 56.117188 272.660156 56.175781 Z M 272.660156 56.175781 " fill-opacity="1" fill-rule="nonzero"/></g><g clip-path="url(#54a0694d3c)"><path fill="#ffffff" d="M 224.273438 59.15625 C 223.265625 60.800781 222.441406 62.148438 222.441406 62.164062 C 222.441406 62.175781 222.542969 62.148438 222.664062 62.105469 L 222.878906 62.023438 L 224.632812 59.285156 L 226.378906 56.550781 L 226.257812 56.363281 C 226.195312 56.257812 226.132812 56.175781 226.121094 56.175781 C 226.109375 56.175781 225.277344 57.515625 224.273438 59.15625 Z M 224.273438 59.15625 " fill-opacity="1" fill-rule="nonzero"/></g><path fill="#ffffff" d="M 237.804688 56.242188 C 236.839844 56.394531 236.042969 57.066406 235.714844 58.003906 C 235.566406 58.433594 235.515625 58.847656 235.539062 59.457031 C 235.550781 59.886719 235.582031 60.066406 235.667969 60.335938 C 235.917969 61.09375 236.410156 61.589844 237.132812 61.796875 C 237.484375 61.902344 238.214844 61.871094 238.554688 61.734375 C 238.785156 61.648438 239.082031 61.40625 239.300781 61.117188 C 239.425781 60.957031 239.464844 61.042969 239.433594 61.402344 C 239.40625 61.710938 239.410156 61.730469 239.5 61.777344 C 239.558594 61.808594 239.796875 61.828125 240.117188 61.828125 C 240.578125 61.832031 240.648438 61.824219 240.699219 61.757812 C 240.765625 61.660156 240.769531 61.058594 240.710938 60.140625 C 240.640625 59.074219 240.585938 58.6875 240.5 58.640625 C 240.417969 58.597656 239.257812 58.582031 239.148438 58.625 C 239.050781 58.664062 239.0625 58.773438 239.199219 59.023438 C 239.296875 59.21875 239.3125 59.289062 239.3125 59.625 C 239.3125 59.929688 239.292969 60.035156 239.21875 60.171875 C 239.003906 60.578125 238.679688 60.777344 238.195312 60.808594 C 237.179688 60.867188 236.621094 60.105469 236.777344 58.867188 C 236.832031 58.40625 236.945312 58.082031 237.132812 57.835938 C 237.496094 57.355469 238.007812 57.179688 238.667969 57.304688 C 239.011719 57.371094 239.308594 57.535156 239.605469 57.832031 C 239.859375 58.078125 240.003906 58.152344 240.058594 58.0625 C 240.070312 58.039062 240.117188 57.761719 240.15625 57.4375 C 240.222656 56.882812 240.222656 56.847656 240.152344 56.738281 C 239.996094 56.503906 239.160156 56.261719 238.414062 56.238281 C 238.148438 56.230469 237.875 56.234375 237.804688 56.242188 Z M 237.804688 56.242188 " fill-opacity="1" fill-rule="nonzero"/><path fill="#ffffff" d="M 254.152344 56.277344 C 253.59375 56.363281 253.210938 56.523438 252.914062 56.789062 C 252.636719 57.042969 252.5625 57.21875 252.5625 57.679688 C 252.5625 58.039062 252.578125 58.097656 252.675781 58.273438 C 252.941406 58.71875 253.359375 58.960938 254.542969 59.347656 C 255.390625 59.628906 255.667969 59.757812 255.855469 59.976562 C 255.964844 60.101562 255.980469 60.144531 255.960938 60.300781 C 255.949219 60.402344 255.90625 60.523438 255.863281 60.574219 C 255.566406 60.90625 254.515625 60.976562 253.71875 60.707031 C 253.335938 60.578125 253.128906 60.457031 252.816406 60.183594 C 252.6875 60.070312 252.554688 59.984375 252.527344 59.992188 C 252.414062 60.03125 252.375 60.222656 252.375 60.78125 C 252.375 61.230469 252.386719 61.367188 252.4375 61.414062 C 252.582031 61.558594 253.566406 61.785156 254.371094 61.859375 C 255.453125 61.960938 256.355469 61.75 256.835938 61.28125 C 257.101562 61.023438 257.195312 60.8125 257.21875 60.417969 C 257.242188 59.972656 257.140625 59.726562 256.816406 59.4375 C 256.511719 59.164062 256.070312 58.953125 255.160156 58.640625 C 254.75 58.503906 254.339844 58.347656 254.253906 58.308594 C 253.558594 57.953125 253.617188 57.453125 254.378906 57.277344 C 255.050781 57.121094 255.820312 57.296875 256.402344 57.738281 C 256.761719 58.015625 256.808594 57.957031 256.808594 57.238281 C 256.808594 56.691406 256.808594 56.679688 256.699219 56.597656 C 256.460938 56.410156 255.496094 56.214844 254.84375 56.222656 C 254.644531 56.226562 254.335938 56.25 254.152344 56.277344 Z M 254.152344 56.277344 " fill-opacity="1" fill-rule="nonzero"/><path fill="#ffffff" d="M 230.175781 56.335938 C 230.097656 56.402344 230.074219 56.46875 230.046875 56.804688 C 230.003906 57.3125 229.933594 59.148438 229.902344 60.542969 C 229.878906 61.761719 229.875 61.757812 230.15625 61.820312 C 230.414062 61.882812 230.953125 61.871094 231.117188 61.800781 C 231.292969 61.726562 231.289062 61.765625 231.195312 60.765625 C 231.109375 59.824219 231.125 59.101562 231.238281 58.980469 C 231.285156 58.929688 231.355469 58.894531 231.40625 58.894531 C 231.554688 58.894531 231.855469 59.28125 232.382812 60.152344 C 232.667969 60.621094 232.992188 61.125 233.113281 61.277344 C 233.507812 61.761719 233.855469 61.953125 234.183594 61.859375 C 234.53125 61.769531 234.703125 61.519531 234.777344 60.996094 C 234.847656 60.527344 234.769531 57.667969 234.667969 56.667969 C 234.628906 56.308594 234.59375 56.285156 234.167969 56.261719 C 233.730469 56.246094 233.53125 56.28125 233.480469 56.382812 C 233.449219 56.441406 233.464844 56.644531 233.542969 57.101562 C 233.761719 58.453125 233.769531 59.238281 233.5625 59.351562 C 233.335938 59.472656 232.730469 58.675781 231.816406 57.050781 C 231.652344 56.761719 231.480469 56.492188 231.433594 56.453125 C 231.292969 56.320312 231.046875 56.261719 230.652344 56.257812 C 230.34375 56.257812 230.25 56.269531 230.175781 56.335938 Z M 230.175781 56.335938 " fill-opacity="1" fill-rule="nonzero"/><path fill="#ffffff" d="M 241.808594 56.289062 C 241.757812 56.296875 241.699219 56.339844 241.675781 56.375 C 241.636719 56.460938 241.558594 57.785156 241.527344 58.996094 C 241.515625 59.457031 241.496094 60.238281 241.484375 60.738281 C 241.460938 61.589844 241.464844 61.644531 241.542969 61.738281 L 241.625 61.839844 L 243.878906 61.839844 C 245.714844 61.839844 246.148438 61.828125 246.199219 61.78125 C 246.257812 61.734375 246.269531 61.660156 246.246094 61.28125 C 246.207031 60.421875 246.148438 59.964844 246.074219 59.910156 C 245.980469 59.832031 245.886719 59.902344 245.730469 60.148438 C 245.382812 60.6875 244.964844 60.875 244.097656 60.875 C 243.5 60.875 243.210938 60.808594 242.929688 60.605469 C 242.707031 60.445312 242.636719 60.269531 242.636719 59.890625 C 242.636719 59.511719 242.707031 59.386719 243.011719 59.234375 C 243.222656 59.132812 243.277344 59.121094 243.722656 59.125 C 244.25 59.132812 244.464844 59.175781 244.796875 59.339844 C 245.109375 59.496094 245.144531 59.457031 245.144531 58.914062 C 245.144531 58.324219 245.164062 58.335938 244.386719 58.394531 C 243.085938 58.496094 242.636719 58.347656 242.636719 57.839844 C 242.636719 57.679688 242.660156 57.613281 242.761719 57.5 C 242.957031 57.273438 243.253906 57.199219 243.910156 57.203125 C 244.726562 57.207031 245.109375 57.339844 245.507812 57.753906 C 245.695312 57.953125 245.742188 57.984375 245.804688 57.949219 C 245.867188 57.90625 245.875 57.828125 245.863281 57.257812 C 245.851562 56.523438 245.824219 56.382812 245.683594 56.3125 C 245.609375 56.269531 245.125 56.261719 243.742188 56.265625 C 242.730469 56.265625 241.863281 56.28125 241.808594 56.289062 Z M 241.808594 56.289062 " fill-opacity="1" fill-rule="nonzero"/><path fill="#ffffff" d="M 247.324219 56.289062 C 247.277344 56.296875 247.21875 56.339844 247.195312 56.375 C 247.15625 56.460938 247.078125 57.785156 247.046875 58.996094 C 247.03125 59.457031 247.015625 60.238281 247.003906 60.738281 C 246.980469 61.589844 246.984375 61.644531 247.0625 61.738281 L 247.140625 61.839844 L 249.378906 61.839844 C 251.214844 61.839844 251.625 61.832031 251.683594 61.78125 C 251.742188 61.730469 251.746094 61.660156 251.726562 61.257812 C 251.6875 60.433594 251.625 59.964844 251.550781 59.910156 C 251.460938 59.835938 251.359375 59.902344 251.234375 60.117188 C 251.097656 60.347656 250.789062 60.636719 250.566406 60.730469 C 250.324219 60.839844 249.707031 60.917969 249.347656 60.882812 C 248.726562 60.824219 248.355469 60.617188 248.210938 60.25 C 248.148438 60.089844 248.144531 59.957031 248.167969 59.277344 C 248.191406 58.515625 248.253906 57.984375 248.445312 56.996094 C 248.5625 56.40625 248.558594 56.359375 248.398438 56.304688 C 248.273438 56.261719 247.527344 56.25 247.324219 56.289062 Z M 247.324219 56.289062 " fill-opacity="1" fill-rule="nonzero"/><g clip-path="url(#becc20d64c)"><path fill="#ffffff" d="M 202.761719 56.457031 C 202.710938 56.464844 202.652344 56.496094 202.632812 56.523438 C 202.585938 56.578125 202.511719 57.886719 202.476562 59.164062 C 202.464844 59.625 202.449219 60.40625 202.4375 60.902344 C 202.410156 61.757812 202.414062 61.8125 202.496094 61.90625 L 202.574219 62.007812 L 204.832031 62.007812 C 206.667969 62.007812 207.097656 61.996094 207.152344 61.949219 C 207.210938 61.902344 207.21875 61.828125 207.199219 61.449219 C 207.15625 60.589844 207.097656 60.128906 207.027344 60.074219 C 206.929688 60 206.839844 60.066406 206.679688 60.3125 C 206.332031 60.855469 205.914062 61.042969 205.050781 61.042969 C 204.449219 61.042969 204.164062 60.976562 203.882812 60.773438 C 203.65625 60.609375 203.585938 60.433594 203.585938 60.058594 C 203.585938 59.679688 203.65625 59.554688 203.960938 59.402344 C 204.175781 59.296875 204.230469 59.289062 204.671875 59.292969 C 205.199219 59.296875 205.417969 59.34375 205.746094 59.507812 C 206.0625 59.664062 206.09375 59.625 206.09375 59.082031 C 206.09375 58.492188 206.113281 58.503906 205.335938 58.5625 C 204.039062 58.664062 203.585938 58.515625 203.585938 58.007812 C 203.585938 57.847656 203.609375 57.78125 203.710938 57.667969 C 203.90625 57.441406 204.203125 57.367188 204.859375 57.371094 C 205.675781 57.375 206.054688 57.503906 206.453125 57.921875 C 206.644531 58.125 206.691406 58.152344 206.75 58.113281 C 206.816406 58.074219 206.824219 58 206.816406 57.425781 C 206.804688 56.691406 206.777344 56.550781 206.632812 56.480469 C 206.558594 56.4375 206.078125 56.429688 204.695312 56.433594 C 203.683594 56.433594 202.8125 56.445312 202.761719 56.457031 Z M 202.761719 56.457031 " fill-opacity="1" fill-rule="nonzero"/></g><g clip-path="url(#1d9ea80da1)"><path fill="#ffffff" d="M 208.183594 56.480469 C 208.089844 56.53125 208.074219 56.5625 208.054688 56.90625 C 208.015625 57.378906 207.941406 59.476562 207.914062 60.800781 C 207.890625 61.753906 207.894531 61.8125 207.972656 61.90625 L 208.050781 62.007812 L 210.292969 62.007812 C 212.25 62.007812 212.535156 62 212.59375 61.945312 C 212.648438 61.886719 212.652344 61.785156 212.617188 61.148438 C 212.566406 60.292969 212.546875 60.144531 212.460938 60.074219 C 212.371094 60.003906 212.269531 60.066406 212.144531 60.28125 C 211.996094 60.527344 211.714844 60.796875 211.488281 60.894531 C 211.238281 61.003906 210.621094 61.082031 210.257812 61.050781 C 209.808594 61.007812 209.535156 60.90625 209.332031 60.714844 C 209.074219 60.46875 209.046875 60.324219 209.074219 59.414062 C 209.09375 58.804688 209.125 58.5 209.25 57.785156 C 209.335938 57.300781 209.414062 56.820312 209.425781 56.714844 C 209.445312 56.527344 209.441406 56.519531 209.3125 56.472656 C 209.125 56.410156 208.320312 56.414062 208.183594 56.480469 Z M 208.183594 56.480469 " fill-opacity="1" fill-rule="nonzero"/></g><g clip-path="url(#7f0919ddd7)"><path fill="#ffffff" d="M 213.660156 56.476562 C 213.589844 56.519531 213.546875 56.582031 213.53125 56.699219 C 213.488281 56.941406 213.414062 58.875 213.390625 60.449219 C 213.367188 61.765625 213.367188 61.820312 213.449219 61.898438 C 213.613281 62.0625 214.550781 62.078125 214.707031 61.917969 C 214.777344 61.84375 214.78125 61.816406 214.726562 61.359375 C 214.695312 61.097656 214.667969 60.671875 214.664062 60.425781 C 214.664062 60.007812 214.671875 59.96875 214.765625 59.878906 C 214.910156 59.730469 215.257812 59.675781 215.960938 59.695312 C 216.628906 59.710938 216.851562 59.777344 216.953125 59.980469 C 217.023438 60.121094 217.019531 60.539062 216.9375 61.257812 C 216.894531 61.667969 216.886719 61.882812 216.910156 61.90625 C 217.0625 62.058594 218.078125 62.0625 218.226562 61.910156 C 218.304688 61.832031 218.253906 58.125 218.152344 56.910156 C 218.109375 56.445312 218.085938 56.425781 217.527344 56.425781 C 217.140625 56.425781 217.082031 56.433594 217.003906 56.515625 C 216.957031 56.558594 216.925781 56.632812 216.9375 56.667969 C 216.964844 56.761719 217.011719 57.480469 217.015625 57.933594 C 217.027344 58.589844 216.90625 58.664062 215.816406 58.664062 C 215.113281 58.664062 215.050781 58.65625 214.886719 58.570312 C 214.617188 58.425781 214.59375 58.308594 214.660156 57.359375 C 214.726562 56.40625 214.753906 56.453125 214.171875 56.433594 C 213.898438 56.425781 213.734375 56.441406 213.660156 56.476562 Z M 213.660156 56.476562 " fill-opacity="1" fill-rule="nonzero"/></g><g clip-path="url(#6d945ecf46)"><path fill="#ffffff" d="M 219.28125 56.46875 C 219.230469 56.488281 219.175781 56.523438 219.164062 56.542969 C 219.132812 56.59375 219.066406 58.464844 219.03125 60.359375 C 219.003906 61.78125 219.003906 61.8125 219.089844 61.894531 C 219.25 62.058594 220.101562 62.074219 220.28125 61.914062 C 220.359375 61.839844 220.359375 61.800781 220.335938 60.378906 C 220.300781 58.574219 220.234375 56.679688 220.199219 56.582031 C 220.1875 56.539062 220.128906 56.488281 220.070312 56.464844 C 219.945312 56.417969 219.402344 56.417969 219.28125 56.46875 Z M 219.28125 56.46875 " fill-opacity="1" fill-rule="nonzero"/></g><g clip-path="url(#3efb2ae160)"><path fill="#ffffff" d="M 226.503906 57.078125 C 226.453125 57.152344 226.414062 57.238281 226.414062 57.257812 C 226.414062 57.277344 227.070312 58.359375 227.867188 59.648438 L 229.324219 62.007812 L 229.582031 62.097656 L 229.839844 62.191406 L 229.742188 62.035156 C 229.691406 61.953125 228.980469 60.800781 228.167969 59.476562 C 227.359375 58.15625 226.671875 57.042969 226.648438 57.003906 C 226.605469 56.945312 226.589844 56.953125 226.503906 57.078125 Z M 226.503906 57.078125 " fill-opacity="1" fill-rule="nonzero"/></g><path fill="#ffffff" d="M 224.832031 59.699219 C 224.113281 60.824219 223.535156 61.757812 223.546875 61.765625 C 223.5625 61.785156 225.617188 61.09375 225.730469 61.03125 C 225.785156 61 225.773438 60.980469 225.671875 60.921875 L 225.546875 60.84375 L 225.820312 60.394531 C 225.964844 60.144531 226.105469 59.9375 226.125 59.9375 C 226.140625 59.9375 226.253906 60.101562 226.375 60.300781 C 226.496094 60.507812 226.621094 60.710938 226.65625 60.761719 C 226.707031 60.84375 226.703125 60.859375 226.574219 60.925781 C 226.472656 60.976562 226.453125 61 226.5 61.023438 C 226.59375 61.078125 228.675781 61.785156 228.691406 61.769531 C 228.703125 61.757812 226.222656 57.722656 226.171875 57.675781 C 226.152344 57.660156 225.550781 58.570312 224.832031 59.699219 Z M 226.867188 59.519531 C 227.269531 60.1875 227.589844 60.742188 227.578125 60.75 C 227.570312 60.757812 227.5 60.796875 227.421875 60.835938 C 227.246094 60.925781 227.324219 61.015625 226.65625 59.925781 C 226.375 59.472656 226.136719 59.101562 226.125 59.101562 C 226.109375 59.101562 225.851562 59.5 225.554688 59.984375 C 225.257812 60.46875 225 60.875 224.984375 60.882812 C 224.957031 60.898438 224.71875 60.800781 224.660156 60.75 C 224.640625 60.730469 226.085938 58.3125 226.121094 58.308594 C 226.132812 58.308594 226.46875 58.855469 226.867188 59.519531 Z M 226.867188 59.519531 " fill-opacity="1" fill-rule="nonzero"/><path fill="#ffffff" d="M 260.320312 57.859375 C 260.265625 57.890625 260.171875 57.976562 260.125 58.050781 C 260.035156 58.1875 260.027344 58.238281 260.027344 58.820312 C 260.027344 59.378906 260.035156 59.460938 260.109375 59.582031 C 260.234375 59.789062 260.414062 59.855469 260.839844 59.855469 C 261.277344 59.855469 261.480469 59.769531 261.589844 59.542969 C 261.6875 59.34375 261.6875 58.277344 261.59375 58.09375 C 261.476562 57.867188 261.316406 57.804688 260.84375 57.804688 C 260.589844 57.804688 260.382812 57.828125 260.320312 57.859375 Z M 260.320312 57.859375 " fill-opacity="1" fill-rule="nonzero"/><path fill="#ffffff" d="M 195.773438 58.339844 C 195.523438 58.476562 195.476562 58.625 195.476562 59.261719 C 195.476562 60.148438 195.574219 60.273438 196.28125 60.273438 C 196.769531 60.273438 196.894531 60.21875 197.027344 59.949219 C 197.105469 59.789062 197.113281 59.707031 197.097656 59.214844 C 197.085938 58.601562 197.046875 58.5 196.800781 58.347656 C 196.613281 58.230469 195.976562 58.230469 195.773438 58.339844 Z M 195.773438 58.339844 " fill-opacity="1" fill-rule="nonzero"/><g fill="#ffffff" fill-opacity="1"><g transform="translate(188.796608, 16.411169)"><g><path d="M 1.609375 0 L 1.609375 -9 L 8.328125 -9 C 9.148438 -9 9.804688 -8.898438 10.296875 -8.703125 C 10.796875 -8.515625 11.15625 -8.207031 11.375 -7.78125 C 11.601562 -7.351562 11.71875 -6.78125 11.71875 -6.0625 C 11.71875 -5.332031 11.601562 -4.753906 11.375 -4.328125 C 11.15625 -3.898438 10.800781 -3.59375 10.3125 -3.40625 C 9.820312 -3.21875 9.164062 -3.125 8.34375 -3.125 L 3.265625 -3.125 L 3.265625 0 Z M 3.265625 -7.5625 L 3.265625 -4.546875 L 9.90625 -4.546875 L 9.90625 -7.5625 Z M 3.265625 -7.5625 "/></g></g></g><g fill="#ffffff" fill-opacity="1"><g transform="translate(200.37984, 16.411169)"><g><path d="M 4.78125 -9 L 7.28125 -9 L 12 -0.0625 L 12 0 L 10.1875 0 L 9.078125 -2.140625 L 2.96875 -2.140625 L 1.859375 0 L 0.09375 0 L 0.09375 -0.0625 Z M 6.015625 -8 L 3.71875 -3.59375 L 8.34375 -3.59375 L 6.0625 -8 Z M 6.015625 -8 "/></g></g></g><g fill="#ffffff" fill-opacity="1"><g transform="translate(211.764499, 16.411169)"><g><path d="M 8.4375 -3.515625 L 12.03125 -0.0625 L 12.03125 0 L 9.8125 0 L 6.1875 -3.515625 L 3.265625 -3.515625 L 3.265625 0 L 1.609375 0 L 1.609375 -9 L 8.515625 -9 C 9.722656 -9 10.585938 -8.785156 11.109375 -8.359375 C 11.628906 -7.929688 11.890625 -7.234375 11.890625 -6.265625 C 11.890625 -5.285156 11.628906 -4.582031 11.109375 -4.15625 C 10.585938 -3.726562 9.722656 -3.515625 8.515625 -3.515625 Z M 10.109375 -7.59375 L 3.265625 -7.59375 L 3.265625 -4.921875 L 10.109375 -4.921875 Z M 10.109375 -7.59375 "/></g></g></g><g fill="#ffffff" fill-opacity="1"><g transform="translate(223.996399, 16.411169)"><g><path d="M 6.5 0 L 4.84375 0 L 4.84375 -7.5625 L 0.21875 -7.5625 L 0.21875 -9 L 11.109375 -9 L 11.109375 -7.5625 L 6.5 -7.5625 Z M 6.5 0 "/></g></g></g><g fill="#ffffff" fill-opacity="1"><g transform="translate(234.639718, 16.411169)"><g><path d="M 3.234375 0 L 1.609375 0 L 1.609375 -9 L 4.484375 -9 L 10.421875 -1 L 10.46875 -1 L 10.46875 -9 L 12.078125 -9 L 12.078125 0 L 9.21875 0 L 3.265625 -8 L 3.234375 -8 Z M 3.234375 0 "/></g></g></g><g fill="#ffffff" fill-opacity="1"><g transform="translate(247.639426, 16.411169)"><g><path d="M 11.40625 0 L 1.609375 0 L 1.609375 -9 L 11.296875 -9 L 11.296875 -7.5625 L 3.265625 -7.5625 L 3.265625 -5.25 L 9.25 -5.25 L 9.25 -3.84375 L 3.265625 -3.84375 L 3.265625 -1.4375 L 11.40625 -1.4375 Z M 11.40625 0 "/></g></g></g><g fill="#ffffff" fill-opacity="1"><g transform="translate(259.169706, 16.411169)"><g><path d="M 8.4375 -3.515625 L 12.03125 -0.0625 L 12.03125 0 L 9.8125 0 L 6.1875 -3.515625 L 3.265625 -3.515625 L 3.265625 0 L 1.609375 0 L 1.609375 -9 L 8.515625 -9 C 9.722656 -9 10.585938 -8.785156 11.109375 -8.359375 C 11.628906 -7.929688 11.890625 -7.234375 11.890625 -6.265625 C 11.890625 -5.285156 11.628906 -4.582031 11.109375 -4.15625 C 10.585938 -3.726562 9.722656 -3.515625 8.515625 -3.515625 Z M 10.109375 -7.59375 L 3.265625 -7.59375 L 3.265625 -4.921875 L 10.109375 -4.921875 Z M 10.109375 -7.59375 "/></g></g></g><g fill="#ffffff" fill-opacity="1"><g transform="translate(271.401602, 16.411169)"><g><path d="M 6.890625 0.15625 C 5.109375 0.15625 3.144531 0.0859375 1 -0.046875 L 0.9375 -1.609375 C 2.738281 -1.429688 4.625 -1.3125 6.59375 -1.25 C 7.332031 -1.238281 7.890625 -1.234375 8.265625 -1.234375 C 8.722656 -1.234375 9.070312 -1.238281 9.3125 -1.25 L 9.3125 -3.515625 L 3.578125 -3.96875 C 2.585938 -4.050781 1.878906 -4.28125 1.453125 -4.65625 C 1.035156 -5.039062 0.828125 -5.644531 0.828125 -6.46875 C 0.828125 -7.125 0.953125 -7.644531 1.203125 -8.03125 C 1.460938 -8.414062 1.878906 -8.695312 2.453125 -8.875 C 3.035156 -9.0625 3.8125 -9.15625 4.78125 -9.15625 C 6.75 -9.15625 8.660156 -9.09375 10.515625 -8.96875 L 10.5625 -7.40625 C 8.695312 -7.613281 6.828125 -7.726562 4.953125 -7.75 C 4.640625 -7.757812 4.1875 -7.765625 3.59375 -7.765625 C 3.15625 -7.765625 2.828125 -7.757812 2.609375 -7.75 L 2.609375 -5.5 L 8.015625 -5.078125 C 8.765625 -5.015625 9.363281 -4.890625 9.8125 -4.703125 C 10.257812 -4.523438 10.585938 -4.257812 10.796875 -3.90625 C 11.003906 -3.550781 11.109375 -3.085938 11.109375 -2.515625 C 11.109375 -1.847656 10.972656 -1.320312 10.703125 -0.9375 C 10.441406 -0.5625 10.003906 -0.285156 9.390625 -0.109375 C 8.785156 0.0664062 7.953125 0.15625 6.890625 0.15625 Z M 6.890625 0.15625 "/></g></g></g><path fill="#ffffff" d="M 53.703125 37.277344 C 53.703125 36.078125 54.433594 35.242188 55.414062 35.242188 C 56.105469 35.242188 56.800781 35.496094 57.164062 35.859375 L 58.402344 32.191406 C 57.273438 31.136719 55.414062 30.410156 53.8125 30.410156 C 50.28125 30.410156 47.804688 32.917969 47.804688 36.441406 L 47.804688 37.785156 L 45.328125 37.785156 L 45.328125 42.691406 L 47.804688 42.691406 L 47.804688 56.574219 L 53.703125 56.574219 L 53.703125 42.691406 L 57.601562 42.691406 L 57.601562 37.785156 L 53.703125 37.785156 Z M 53.703125 37.277344 " fill-opacity="1" fill-rule="nonzero"/><path fill="#ffffff" d="M 72.007812 37.785156 L 72.007812 48.726562 L 71.972656 48.617188 C 71.972656 50.46875 70.550781 51.886719 68.660156 51.886719 C 66.765625 51.886719 65.453125 50.433594 65.453125 48.363281 L 65.453125 37.785156 L 59.554688 37.785156 L 59.554688 49.742188 C 59.554688 53.996094 62.429688 57.011719 66.472656 57.011719 C 68.839844 57.011719 70.84375 56.03125 72.007812 54.429688 L 72.007812 56.574219 L 78.164062 56.574219 L 78.164062 37.785156 Z M 72.007812 37.785156 " fill-opacity="1" fill-rule="nonzero"/><path fill="#ffffff" d="M 90.183594 52.03125 C 88.183594 52.03125 86.6875 50.761719 86.105469 48.871094 L 99.542969 48.871094 C 99.542969 41.710938 96.046875 37.351562 90.074219 37.351562 C 84.394531 37.351562 80.242188 41.421875 80.242188 47.125 C 80.242188 52.902344 84.539062 57.011719 90.367188 57.011719 C 93.171875 57.011719 96.414062 55.8125 98.085938 54.101562 L 94.445312 50.433594 C 93.316406 51.414062 91.640625 52.03125 90.183594 52.03125 Z M 90.183594 42.292969 C 92.042969 42.292969 93.316406 43.417969 93.828125 45.128906 L 86.179688 45.128906 C 86.835938 43.382812 88.328125 42.292969 90.183594 42.292969 Z M 90.183594 42.292969 " fill-opacity="1" fill-rule="nonzero"/><path fill="#ffffff" d="M 101.722656 56.574219 L 107.914062 56.574219 L 107.914062 31.171875 L 101.722656 31.171875 Z M 101.722656 56.574219 " fill-opacity="1" fill-rule="nonzero"/><path fill="#ffffff" d="M 120.042969 52.03125 C 118.039062 52.03125 116.546875 50.761719 115.964844 48.871094 L 129.402344 48.871094 C 129.402344 41.710938 125.90625 37.351562 119.933594 37.351562 C 114.253906 37.351562 110.101562 41.421875 110.101562 47.125 C 110.101562 52.902344 114.398438 57.011719 120.226562 57.011719 C 123.027344 57.011719 126.269531 55.8125 127.945312 54.101562 L 124.304688 50.433594 C 123.175781 51.414062 121.5 52.03125 120.042969 52.03125 Z M 120.042969 42.292969 C 121.898438 42.292969 123.175781 43.417969 123.683594 45.128906 L 116.039062 45.128906 C 116.691406 43.382812 118.1875 42.292969 120.042969 42.292969 Z M 120.042969 42.292969 " fill-opacity="1" fill-rule="nonzero"/><g clip-path="url(#db96c70004)"><path fill="#ffffff" d="M 137.660156 41.273438 L 137.660156 37.785156 L 131.507812 37.785156 L 131.507812 56.574219 L 137.660156 56.574219 L 137.660156 48.035156 L 137.699219 48.105469 C 137.699219 44.65625 140.027344 42.472656 143.851562 42.472656 L 143.851562 37.351562 C 141.121094 37.351562 138.898438 38.839844 137.660156 41.273438 Z M 137.660156 41.273438 " fill-opacity="1" fill-rule="nonzero"/></g><g clip-path="url(#0ea55e3d4f)"><g clip-path="url(#91168e3e15)"><path fill="url(#6e39c79d5a)" d="M 0 24.683594 L 0 62.925781 L 37.222656 62.925781 L 37.222656 24.683594 Z M 0 24.683594 " fill-rule="nonzero"/></g></g><path fill="#ffffff" d="M 18.058594 34.792969 L 12.878906 44.628906 C 12.824219 44.738281 12.796875 44.859375 12.796875 44.980469 C 12.800781 45.101562 12.835938 45.222656 12.898438 45.328125 C 12.960938 45.433594 13.046875 45.519531 13.152344 45.578125 C 13.257812 45.640625 13.378906 45.671875 13.5 45.671875 L 16.21875 45.671875 C 16.3125 45.671875 16.402344 45.691406 16.488281 45.726562 C 16.574219 45.761719 16.652344 45.8125 16.714844 45.878906 C 16.78125 45.945312 16.832031 46.023438 16.867188 46.109375 C 16.902344 46.195312 16.921875 46.289062 16.921875 46.382812 L 16.921875 52.292969 C 16.921875 53.023438 17.882812 53.277344 18.238281 52.636719 L 23.640625 42.894531 C 23.703125 42.789062 23.734375 42.664062 23.730469 42.542969 C 23.730469 42.417969 23.695312 42.296875 23.636719 42.191406 C 23.574219 42.082031 23.484375 41.996094 23.378906 41.933594 C 23.273438 41.871094 23.152344 41.839844 23.03125 41.839844 L 20.078125 41.835938 C 19.894531 41.835938 19.714844 41.761719 19.582031 41.628906 C 19.453125 41.496094 19.378906 41.3125 19.378906 41.125 L 19.378906 35.125 C 19.378906 34.386719 18.402344 34.140625 18.058594 34.792969 Z M 18.058594 34.792969 " fill-opacity="1" fill-rule="nonzero"/><g fill="#ffffff" fill-opacity="1"><g transform="translate(161.614178, 53.280764)"><g><path d="M 8.90625 7.90625 L 5.28125 7.90625 L 5.28125 -26.234375 L 8.90625 -26.234375 Z M 8.90625 7.90625 "/></g></g></g><g clip-path="url(#53f010cae4)"><path fill="#ffffff" d="M 354.203125 48.828125 C 354.660156 48.828125 354.976562 49.28125 354.828125 49.710938 C 354.230469 51.433594 353.316406 52.988281 352.117188 54.320312 C 350.917969 55.664062 349.4375 56.726562 347.726562 57.488281 C 346.015625 58.253906 344.070312 58.636719 341.945312 58.636719 C 339.132812 58.636719 336.660156 57.972656 334.601562 56.660156 C 332.546875 55.355469 330.945312 53.566406 329.847656 51.351562 C 328.757812 49.15625 328.207031 46.691406 328.207031 44.015625 C 328.207031 41.347656 328.757812 38.878906 329.847656 36.679688 C 330.945312 34.46875 332.546875 32.679688 334.601562 31.371094 C 336.664062 30.0625 339.132812 29.394531 341.945312 29.394531 C 344.070312 29.394531 346.015625 29.78125 347.726562 30.542969 C 349.4375 31.304688 350.917969 32.359375 352.117188 33.6875 C 353.316406 35.011719 354.230469 36.570312 354.828125 38.324219 C 354.976562 38.757812 354.65625 39.207031 354.203125 39.207031 L 350.972656 39.207031 C 350.707031 39.207031 350.464844 39.042969 350.363281 38.796875 L 350.363281 38.792969 C 349.738281 37.253906 348.734375 36.011719 347.382812 35.101562 C 346.027344 34.191406 344.28125 33.730469 342.1875 33.730469 C 340.148438 33.730469 338.390625 34.1875 336.960938 35.089844 C 335.539062 35.996094 334.445312 37.222656 333.710938 38.746094 C 332.96875 40.292969 332.59375 42.070312 332.59375 44.015625 C 332.59375 45.9375 332.972656 47.707031 333.714844 49.265625 C 334.445312 50.804688 335.539062 52.042969 336.960938 52.941406 C 338.390625 53.84375 340.148438 54.300781 342.1875 54.300781 C 344.28125 54.300781 346.027344 53.839844 347.382812 52.929688 C 348.734375 52.023438 349.738281 50.78125 350.363281 49.238281 C 350.464844 48.992188 350.707031 48.828125 350.976562 48.828125 Z M 354.203125 48.828125 " fill-opacity="1" fill-rule="nonzero"/></g><g clip-path="url(#384314eb44)"><path fill="#ffffff" d="M 372.53125 46.230469 L 365.460938 46.230469 C 364.988281 46.230469 364.667969 45.75 364.851562 45.3125 L 368.386719 36.789062 C 368.613281 36.25 369.378906 36.25 369.605469 36.789062 L 373.140625 45.3125 C 373.320312 45.75 373.003906 46.230469 372.53125 46.230469 Z M 382.089844 55.199219 L 372.277344 31.914062 C 371.71875 30.585938 370.425781 29.726562 368.996094 29.726562 C 367.566406 29.726562 366.273438 30.585938 365.714844 31.914062 L 355.90625 55.199219 C 355.285156 56.671875 356.359375 58.308594 357.949219 58.308594 C 358.394531 58.308594 358.820312 58.175781 359.175781 57.9375 C 359.53125 57.699219 359.824219 57.355469 359.996094 56.941406 L 362.5625 50.808594 C 362.664062 50.5625 362.90625 50.402344 363.171875 50.402344 L 374.824219 50.402344 C 375.085938 50.402344 375.328125 50.5625 375.429688 50.808594 L 378 56.941406 C 378.34375 57.769531 379.148438 58.308594 380.042969 58.308594 L 380.046875 58.308594 C 381.636719 58.308594 382.710938 56.671875 382.089844 55.199219 Z M 382.089844 55.199219 " fill-opacity="1" fill-rule="nonzero"/></g><g clip-path="url(#c4a9f04fd6)"><path fill="#ffffff" d="M 409.828125 31.933594 L 409.828125 55.265625 C 409.828125 56.945312 408.476562 58.308594 406.808594 58.308594 C 405.84375 58.308594 404.9375 57.847656 404.371094 57.0625 L 390.75 38.308594 C 390.371094 37.789062 389.558594 38.058594 389.558594 38.699219 L 389.558594 56.097656 C 389.558594 57.320312 388.574219 58.308594 387.363281 58.308594 C 386.152344 58.308594 385.171875 57.320312 385.171875 56.097656 L 385.171875 32.769531 C 385.171875 31.089844 386.523438 29.726562 388.191406 29.726562 C 389.152344 29.726562 390.058594 30.1875 390.628906 30.96875 L 404.25 49.65625 C 404.628906 50.175781 405.441406 49.90625 405.441406 49.265625 L 405.441406 31.933594 C 405.441406 30.714844 406.421875 29.726562 407.632812 29.726562 C 408.84375 29.726562 409.828125 30.714844 409.828125 31.933594 Z M 409.828125 31.933594 " fill-opacity="1" fill-rule="nonzero"/></g><g clip-path="url(#419379725e)"><path fill="#ffffff" d="M 438.628906 30.640625 L 428.335938 56.253906 C 427.835938 57.496094 426.636719 58.308594 425.304688 58.308594 C 423.976562 58.308594 422.777344 57.496094 422.277344 56.253906 L 411.984375 30.640625 C 411.808594 30.203125 412.128906 29.726562 412.597656 29.726562 L 415.949219 29.726562 C 416.222656 29.726562 416.464844 29.890625 416.5625 30.144531 L 424.695312 50.785156 C 424.914062 51.34375 425.699219 51.34375 425.921875 50.785156 L 434.050781 30.144531 C 434.152344 29.890625 434.394531 29.726562 434.664062 29.726562 L 438.019531 29.726562 C 438.488281 29.726562 438.804688 30.203125 438.628906 30.640625 Z M 438.628906 30.640625 " fill-opacity="1" fill-rule="nonzero"/></g><g clip-path="url(#67b6787ad5)"><path fill="#ffffff" d="M 445.175781 31.933594 L 445.175781 56.097656 C 445.175781 57.320312 444.195312 58.308594 442.980469 58.308594 C 441.769531 58.308594 440.789062 57.320312 440.789062 56.097656 L 440.789062 31.933594 C 440.789062 30.714844 441.769531 29.726562 442.980469 29.726562 C 444.195312 29.726562 445.175781 30.714844 445.175781 31.933594 Z M 445.175781 31.933594 " fill-opacity="1" fill-rule="nonzero"/></g><path fill="#7facf4" d="M 460.324219 44.523438 C 460.25 44.675781 460.121094 44.820312 459.984375 44.921875 C 458.757812 45.863281 457.523438 46.792969 456.289062 47.722656 C 455.765625 48.121094 455.242188 48.515625 454.714844 48.910156 L 454.714844 39.363281 C 455.769531 40.160156 456.824219 40.957031 457.878906 41.753906 C 458.59375 42.296875 459.316406 42.835938 460.03125 43.382812 C 460.402344 43.667969 460.527344 44.125 460.324219 44.523438 Z M 460.324219 44.523438 " fill-opacity="1" fill-rule="nonzero"/><g clip-path="url(#1946d75a72)"><path fill="#ffffff" d="M 448.523438 55.414062 C 449.335938 57.25 451.140625 58.433594 453.125 58.433594 C 454.164062 58.433594 455.160156 58.113281 456.011719 57.5 C 456.886719 56.875 457.753906 56.210938 458.523438 55.625 L 458.695312 55.492188 C 459.054688 55.21875 459.414062 54.945312 459.777344 54.671875 L 462.132812 52.898438 C 463.269531 52.039062 464.351562 51.222656 465.40625 50.421875 L 465.574219 50.296875 C 466.570312 49.539062 467.546875 48.800781 468.523438 48.054688 C 470.019531 46.910156 470.699219 45.304688 470.492188 43.410156 C 470.335938 41.988281 469.660156 40.8125 468.476562 39.917969 C 467.636719 39.28125 466.796875 38.644531 465.953125 38.007812 L 460.636719 33.996094 C 459.171875 32.890625 457.703125 31.78125 456.242188 30.675781 C 455.292969 29.953125 454.25 29.601562 453.042969 29.59375 C 450.273438 29.640625 448.097656 31.882812 448.089844 34.703125 C 448.089844 36.164062 448.089844 37.628906 448.089844 39.089844 L 448.089844 39.386719 L 451.992188 39.386719 L 451.992188 39.089844 C 451.992188 37.625 451.992188 36.160156 451.992188 34.695312 C 451.992188 34.011719 452.480469 33.515625 453.144531 33.515625 C 453.160156 33.515625 453.175781 33.515625 453.191406 33.515625 C 453.203125 33.515625 453.214844 33.515625 453.226562 33.519531 C 453.4375 33.527344 453.65625 33.625 453.90625 33.8125 C 455.511719 35.027344 457.113281 36.238281 458.71875 37.449219 L 462.71875 40.472656 C 463.570312 41.109375 464.851562 42.074219 466.140625 43.0625 C 466.625 43.429688 466.78125 43.980469 466.539062 44.457031 C 466.433594 44.664062 466.253906 44.871094 466.042969 45.03125 C 464.046875 46.558594 462.007812 48.097656 459.921875 49.671875 L 456.273438 52.429688 C 455.472656 53.035156 454.671875 53.640625 453.863281 54.246094 C 453.632812 54.414062 453.375 54.503906 453.113281 54.503906 C 452.660156 54.503906 452.140625 54.214844 452.007812 53.558594 C 451.992188 53.476562 451.992188 53.347656 451.992188 53.210938 L 451.992188 53.175781 C 451.992188 51.910156 451.992188 50.640625 451.992188 49.375 L 451.992188 49.074219 L 448.089844 49.074219 L 448.089844 53.359375 C 448.089844 54.066406 448.234375 54.761719 448.523438 55.414062 Z M 448.523438 55.414062 " fill-opacity="1" fill-rule="evenodd"/></g><g fill="#ffffff" fill-opacity="1"><g transform="translate(295.860889, 53.280764)"><g><path d="M 8.90625 7.90625 L 5.28125 7.90625 L 5.28125 -26.234375 L 8.90625 -26.234375 Z M 8.90625 7.90625 "/></g></g></g></svg>